HIERARCHY
ROOT ui
{
	 OFFSET 0 0 0
	 CHANNELS 3 XPosition YPosition Z Position
	 EndSite
	 {
	 OFFSET 0 -1 0
	 }
}
ROOT li
{
	 OFFSET 0 0 0
	 CHANNELS 3 XPosition YPosition Z Position
	 EndSite
	 {
	 OFFSET 0 -1 0
	 }
}
ROOT ul
{
	 OFFSET 0 0 0
	 CHANNELS 3 XPosition YPosition Z Position
	 EndSite
	 {
	 OFFSET 0 -1 0
	 }
}
ROOT ll
{
	 OFFSET 0 0 0
	 CHANNELS 3 XPosition YPosition Z Position
	 EndSite
	 {
	 OFFSET 0 -1 0
	 }
}
ROOT tt
{
	 OFFSET 0 0 0
	 CHANNELS 3 XPosition YPosition Z Position
	 EndSite
	 {
	 OFFSET 0 -1 0
	 }
}
ROOT tb
{
	 OFFSET 0 0 0
	 CHANNELS 3 XPosition YPosition Z Position
	 EndSite
	 {
	 OFFSET 0 -1 0
	 }
}
ROOT td
{
	 OFFSET 0 0 0
	 CHANNELS 3 XPosition YPosition Z Position
	 EndSite
	 {
	 OFFSET 0 -1 0
	 }
}
ROOT v
{
	 OFFSET 0 0 0
	 CHANNELS 3 XPosition YPosition Z Position
	 EndSite
	 {
	 OFFSET 0 -1 0
	 }
}
ROOT bn
{
	 OFFSET 0 0 0
	 CHANNELS 3 XPosition YPosition Z Position
	 EndSite
	 {
	 OFFSET 0 -1 0
	 }
}
MOTION
Frames: 13
Frame Time: 0.002
0.004118124008178711	3.209400177001953E-5	0		0.4450625305175781	-2.44992724609375	0		-1.0645621337890625	-0.03678629302978516	0		-0.7826448974609375	-2.487337158203125	0		0.9906135864257812	-0.6349818115234375	0		2.588365234375	0.3929371032714844	0		4.2008466796875	0.47852487182617187	0		5.47220263671875	0.030217971801757813	0		-0.06247474670410156	5.9697255859375	0		
0.007527474880218506	0.0027361490726470947	0		0.42738751220703125	-2.455895751953125	0		-1.13424951171875	-0.03999881362915039	0		-0.8432234497070312	-2.4866806640625	0		0.9968992919921875	-0.64130224609375	0		2.5887216796875	0.39273895263671876	0		4.18899072265625	0.46454232788085936	0		5.4766865234375	0.038016529083251954	0		-0.08115293121337891	5.9747607421875	0		
0.012885711669921874	-0.0015874489545822143	0		0.46092144775390625	-2.451635986328125	0		-1.0446885986328125	-0.031613018035888674	0		-0.8017503662109375	-2.4865634765625	0		1.0062985229492187	-0.6436692504882813	0		2.59402783203125	0.3854607849121094	0		4.18559912109375	0.47742578125	0		5.4812255859375	0.04580215072631836	0		-0.029617156982421875	5.98873828125	0		
0.012483051300048828	0.006182456016540527	0		0.42460479736328127	-2.44031640625	0		-1.131171630859375	-0.028560237884521486	0		-0.8111148071289063	-2.478669921875	0		1.0037245483398438	-0.6478529052734375	0		2.5936796875	0.397268798828125	0		4.2071865234375	0.484926025390625	0		5.48170166015625	0.04563963317871094	0		-0.03021503448486328	5.98950830078125	0		
0.008956265449523926	0.00200517201423645	0		0.4470152587890625	-2.4508798828125	0		-1.0627664794921876	-0.037837207794189455	0		-0.8146104736328125	-2.482857666015625	0		1.001220947265625	-0.651032958984375	0		2.5821337890625	0.39224465942382813	0		4.20260888671875	0.4778167724609375	0		5.482234375	0.045470165252685546	0		-0.045905979156494144	5.97951220703125	0		
0.014481900215148925	-0.002300143003463745	0		0.4196748657226563	-2.447684326171875	0		-1.0621795654296875	-0.03807842636108399	0		-0.8180587158203125	-2.48703564453125	0		1.0207365112304687	-0.6565391845703125	0		2.599714599609375	0.39178396606445315	0		4.2031904296875	0.47762860107421873	0		5.4838349609375	0.04627972412109375	0		-0.07946630096435547	5.97379443359375	0		
0.010176336288452149	0.0015530580282211305	0		0.4571570129394531	-2.459458984375	0		-1.13752197265625	-0.036163524627685545	0		-0.8153765258789063	-2.4852939453125	0		0.9961971435546875	-0.6683753051757813	0		2.592165283203125	0.37970364379882815	0		4.2038203125	0.4774385070800781	0		5.4944521484375	0.04494873046875	0		-0.07887767791748047	5.97357177734375	0		
0.01084784984588623	0.001340980052947998	0		0.4230405578613281	-2.446143310546875	0		-1.1328055419921874	-0.033441925048828126	0		-0.80075439453125	-2.489720458984375	0		1.0048409423828124	-0.6707026977539062	0		2.596090576171875	0.3964573974609375	0		4.2044892578125	0.4772474365234375	0		5.50025830078125	0.053687820434570314	0		-0.027970712661743165	5.9906044921875	0		
0.016484382629394532	-0.002935473918914795	0		0.4517109985351562	-2.44876513671875	0		-1.060176513671875	-0.038730072021484374	0		-0.809928955078125	-2.4817744140625	0		1.0024801635742187	-0.6748560791015625	0		2.605605224609375	0.3841283874511719	0		4.22628857421875	0.48373980712890624	0		5.51608935546875	0.062273677825927735	0		-0.04346788787841797	5.97864501953125	0		
-0.06672168731689453	0.003138175010681152	0		0.45242086791992187	-2.448955322265625	0		-1.0594674072265624	-0.03892079925537109	0		-0.7773280639648438	-2.489446044921875	0		1.0370050048828126	-0.6875567016601563	0		2.6354013671875	0.3895014953613281	0		4.22699755859375	0.4835506591796875	0		5.5116787109375	0.054161102294921874	0		-0.057924442291259766	5.967681640625	0		
0.012962860107421875	7.704939842224121E-4	0		0.45107962036132815	-2.452104248046875	0		-1.0587589111328124	-0.03909711837768555	0		-0.8146051025390625	-2.488051025390625	0		1.015729736328125	-0.6864060668945312	0		2.6119326171875	0.3776805419921875	0		4.239509765625	0.47018463134765626	0		5.52238623046875	0.05382115936279297	0		-0.07611154174804688	5.97378857421875	0		
-0.03439157867431641	-0.0026720120906829833	0		0.43368136596679685	-2.458000244140625	0		-1.0580587158203125	-0.03925852966308594	0		-0.8040368041992187	-2.496363037109375	0		1.024200439453125	-0.7016949462890625	0		2.6286328125	0.3772628173828125	0		4.24430224609375	0.47594012451171874	0		5.53408544921875	0.05346653747558594	0		-0.07540125274658203	5.97262353515625	0		
0.014352422714233398	4.5179200172424316E-4	0		0.465397216796875	-2.455623046875	0		-1.1142578125	-0.03154673957824707	0		-0.83219384765625	-2.4850751953125	0		1.0418079833984375	-0.7071094970703125	0		2.638142333984375	0.36495974731445313	0		4.2539931640625	0.4756258239746094	0		5.53889501953125	0.06121878814697266	0		-0.057541847229003906	5.9812138671875	0		
